<svg xmlns="http://www.w3.org/2000/svg" width="216.462" height="204" viewBox="0 0 216.462 204">
  <g id="icon_cart" transform="translate(-0.269)">
    <g id="shopping-online" transform="translate(69 75)">
      <path id="Shape" d="M59.778,79.77a7.61,7.61,0,0,1-2.049-3.776H30.816a7.618,7.618,0,0,1-2.05,3.776,7.547,7.547,0,0,1-10.713,0,7.627,7.627,0,0,1,2.489-12.431L9.985,7.614.88,3.03A1.6,1.6,0,0,1,2.3.169L12.01,5.056a1.6,1.6,0,0,1,.981,1.215L15.1,18.226h39.48a1.606,1.606,0,0,1,0,3.212H15.673L22.3,58.93h5.146a1.606,1.606,0,0,1,0,3.212H22.868l.82,4.637a7.592,7.592,0,0,1,7.128,6H57.729A7.609,7.609,0,0,1,59.778,69a7.547,7.547,0,0,1,10.713,0,7.638,7.638,0,0,1,0,10.766,7.547,7.547,0,0,1-10.713,0ZM40.234,62.142a1.607,1.607,0,0,1,0-3.213H67.385a3.517,3.517,0,0,0,2.549-1.076,6.288,6.288,0,0,0,1.6-3.342l5.063-28.643a2.577,2.577,0,0,0,.039-.451,3.769,3.769,0,0,0-1.07-2.47,4.614,4.614,0,0,0-2.534-1.458,3.292,3.292,0,0,0-.58-.052H67.373a1.606,1.606,0,0,1,0-3.212h5.075a6.468,6.468,0,0,1,1.13.1,7.87,7.87,0,0,1,4.333,2.462,6.978,6.978,0,0,1,1.919,4.629,5.694,5.694,0,0,1-.089,1L74.678,55.064a9.519,9.519,0,0,1-2.484,5.062,6.63,6.63,0,0,1-4.809,2.017Zm-7.992-1.606a1.6,1.6,0,1,1,1.6,1.606A1.6,1.6,0,0,1,32.242,60.536Zm12.627-6.5L32.411,41.521a9.236,9.236,0,0,1,0-12.982,9.124,9.124,0,0,1,12.919,0l.67.672.67-.672a9.122,9.122,0,0,1,12.918,0,9.234,9.234,0,0,1,0,12.982L47.129,54.04a1.592,1.592,0,0,1-2.26,0ZM59.381,19.832a1.6,1.6,0,1,1,1.6,1.606A1.6,1.6,0,0,1,59.381,19.832Z" transform="translate(0.08 0)" fill="#ccced0"/>
    </g>
    <circle id="Oval" cx="87.5" cy="87.5" r="87.5" transform="translate(21 28)" fill="none" stroke="#ccced0" stroke-miterlimit="10" stroke-width="2" stroke-dasharray="5"/>
    <path id="Star" d="M5.5,8.25,2.267,9.95l.617-3.6L.269,3.8l3.614-.525L5.5,0,7.116,3.275l3.614.525L8.115,6.35l.617,3.6Z" transform="translate(142 52)" fill="#ccced0"/>
    <path id="Star_Copy_6" data-name="Star Copy 6" d="M5.5,8.25,2.267,9.95l.617-3.6L.269,3.8l3.614-.525L5.5,0,7.116,3.275l3.614.525L8.115,6.35l.617,3.6Z" transform="translate(206 63.95)" fill="#ccced0"/>
    <path id="Star_Copy_2" data-name="Star Copy 2" d="M5.5,8.25,2.267,9.95l.617-3.6L.269,3.8l3.614-.525L5.5,0,7.116,3.275l3.614.525L8.115,6.35l.617,3.6Z" transform="translate(173 116)" fill="#ccced0"/>
    <path id="Star_Copy_4" data-name="Star Copy 4" d="M5.5,8.25,2.267,9.95l.617-3.6L.269,3.8l3.614-.525L5.5,0,7.116,3.275l3.614.525L8.115,6.35l.617,3.6Z" transform="translate(33.731 126)" fill="#ccced0"/>
    <path id="Star_Copy" data-name="Star Copy" d="M5.5,8.25,2.267,9.95l.617-3.6L.269,3.8l3.614-.525L5.5,0,7.116,3.275l3.614.525L8.115,6.35l.617,3.6Z" transform="translate(0 42)" fill="#ccced0"/>
    <path id="Star_Copy_3" data-name="Star Copy 3" d="M5.5,8.25,2.267,9.95l.617-3.6L.269,3.8l3.614-.525L5.5,0,7.116,3.275l3.614.525L8.115,6.35l.617,3.6Z" transform="translate(113)" fill="#ccced0"/>
  </g>
</svg>
