<svg id="Logo" xmlns="http://www.w3.org/2000/svg" width="149.999" height="154" viewBox="0 0 149.999 154">
  <g id="Group_2" data-name="Group 2" transform="translate(27.67)">
    <path id="Fill_1" data-name="Fill 1" d="M49.048,23.559A23.568,23.568,0,0,0,25.472,0h-1.9A23.568,23.568,0,0,0,0,23.559H7.355a15.463,15.463,0,0,1,1.551-7.218A16.375,16.375,0,0,1,23.576,7.218h1.9a16.375,16.375,0,0,1,14.671,9.124,15.463,15.463,0,0,1,1.551,7.218Z" transform="translate(21.799)" fill="#fff"/>
    <path id="Combined_Shape" data-name="Combined Shape" d="M27.987,68.866A21.775,21.775,0,0,1,6.071,47.285V9.1A9.724,9.724,0,0,0,0,0H24.679c28.039,3.351,16.8,45.712,34.93,30.491C55.5,38.433,50.419,43.985,43.863,45.877c-11.523,2.909-12.837-31.664-22.335-31.9V56.049a15.467,15.467,0,0,1-14.2-9.213v.448A20.53,20.53,0,0,0,27.987,67.632H62.843A20.53,20.53,0,0,0,83.506,47.285v-.444a15.467,15.467,0,0,1-14.2,9.209V13.976c-4.083.1-6.653,6.546-9.171,13.631C51.227,34.672,49.774,27,46.605,17.49,49.617,9.545,54.482,1.4,66.151,0H90.83a9.724,9.724,0,0,0-6.071,9.1V47.285A21.775,21.775,0,0,1,62.843,68.866Z" transform="translate(0 27.184)" fill="#fff"/>
  </g>
  <path id="Marier" d="M103.828,24.32a13.166,13.166,0,0,1,13.155-13.453c6.907,0,12.341,6,12.341,13.35a23.427,23.427,0,0,1-.152,2.483H110.735c.813,3.571,3.708,5.279,7.061,5.279a12.426,12.426,0,0,0,6.856-2.019l2.54,4.967a16.873,16.873,0,0,1-9.447,2.847C110.329,37.774,103.828,32.857,103.828,24.32Zm-63.6,0c0-7.452,4.471-13.453,11.479-13.453a9.847,9.847,0,0,1,7.923,3.673V11.384h6.654V37.256H59.631v-3.1a9.733,9.733,0,0,1-7.923,3.622C44.7,37.774,40.229,31.771,40.229,24.32Zm94.179,12.936V11.384h6.7v4.967c.71-2.121,3.3-5.484,8.888-5.484v7.554c-5.892,0-8.787,2.743-8.787,8.9v9.935Zm-42.416,0V11.384H98.8V37.256Zm-19.913,0V11.384h6.7v4.967c.712-2.121,3.3-5.484,8.889-5.484v7.554c-5.893,0-8.787,2.743-8.787,8.9v9.935Zm-44.651,0V16.041s-1.27,2.121-3,4.657L17.268,31.1,10.057,20.646C8.38,18.214,7.11,16.041,7.11,16.041V37.256H0V3.725H6.146l5.181,7.452c.59.839,1.376,1.98,2.182,3.158l.324.472c1.617,2.368,3.222,4.746,3.417,5.034l.018.029s4.064-5.9,5.943-8.64l5.181-7.5h6.146V37.256ZM91.331,4.14a4.038,4.038,0,1,1,4.012,4.087A4.1,4.1,0,0,1,91.331,4.14Z" transform="translate(0 116.226)" fill="#fff"/>
</svg>
